<?xml version="1.0" encoding="UTF-8" standalone="no"?>
<!-- Created with Inkscape (http://www.inkscape.org/) -->

<svg
   xmlns:dc="http://purl.org/dc/elements/1.1/"
   xmlns:cc="http://creativecommons.org/ns#"
   xmlns:rdf="http://www.w3.org/1999/02/22-rdf-syntax-ns#"
   xmlns:svg="http://www.w3.org/2000/svg"
   xmlns="http://www.w3.org/2000/svg"
   xmlns:sodipodi="http://sodipodi.sourceforge.net/DTD/sodipodi-0.dtd"
   xmlns:inkscape="http://www.inkscape.org/namespaces/inkscape"
   width="151.90997mm"
   height="152.25951mm"
   viewBox="0 0 151.90998 152.2595"
   version="1.1"
   id="svg8"
   inkscape:version="0.92.4 5da689c313, 2019-01-14"
   sodipodi:docname="orma.svg">
  <defs
     id="defs2" />
  <sodipodi:namedview
     id="base"
     pagecolor="#ffffff"
     bordercolor="#666666"
     borderopacity="1.0"
     inkscape:pageopacity="0.0"
     inkscape:pageshadow="2"
     inkscape:zoom="1.4"
     inkscape:cx="163.03158"
     inkscape:cy="63.192106"
     inkscape:document-units="mm"
     inkscape:current-layer="g5409"
     showgrid="false"
     fit-margin-top="0"
     fit-margin-left="0"
     fit-margin-right="0"
     fit-margin-bottom="0"
     inkscape:window-width="2693"
     inkscape:window-height="1708"
     inkscape:window-x="463"
     inkscape:window-y="197"
     inkscape:window-maximized="0" />
  <metadata
     id="metadata5">
    <rdf:RDF>
      <cc:Work
         rdf:about="">
        <dc:format>image/svg+xml</dc:format>
        <dc:type
           rdf:resource="http://purl.org/dc/dcmitype/StillImage" />
        <dc:title></dc:title>
      </cc:Work>
    </rdf:RDF>
  </metadata>
  <g
     inkscape:label="Layer 1"
     inkscape:groupmode="layer"
     id="layer1"
     transform="translate(-6.7938298,-20.914074)">
    <g
       id="g5429">
      <g
         id="g5409">
        <path
           style="fill:#000000;fill-opacity:1;stroke:none;stroke-width:4.94854116;stroke-miterlimit:4;stroke-dasharray:none;stroke-opacity:1"
           d="M 442.10742 0 C 442.10742 0 458.85295 34.057185 462.47461 63.144531 C 465.05047 83.832452 480.10211 77.646756 487.51172 72.609375 C 494.92137 67.571987 500.23435 62.377428 489.30664 44.902344 C 478.37889 27.427256 442.10742 0 442.10742 0 z M 295.67773 4.6171875 C 295.67773 4.6171875 312.42127 38.67438 316.04297 67.761719 C 318.61883 88.449639 333.67243 82.26394 341.08203 77.226562 C 348.49169 72.189178 353.8047 66.994615 342.87695 49.519531 C 331.94921 32.044443 295.67773 4.6171875 295.67773 4.6171875 z M 151.19141 60.185547 C 151.19141 60.185547 149.0939 106.85314 155.36328 126.66406 C 161.63266 146.47498 168.84021 145.39003 177.24023 142.5 C 185.64027 139.60999 199.67399 131.21156 185.7832 116.19727 C 166.25268 95.087051 151.19141 60.185547 151.19141 60.185547 z M 491.74805 91.087891 A 53.206447 84.711356 0.18720901 0 0 439.0293 170.67578 A 53.206447 84.711356 0.18720901 0 0 488.74609 260.35156 A 53.206447 84.711356 0.18720901 0 0 545.22852 180.91406 A 53.206447 84.711356 0.18720901 0 0 495.51172 91.238281 A 53.206447 84.711356 0.18720901 0 0 491.74805 91.087891 z M 352.75977 91.294922 A 82.829083 54.394239 74.331824 0 0 342.0625 93.300781 A 82.829083 54.394239 74.331824 0 0 315.22852 190.39453 A 82.829083 54.394239 74.331824 0 0 391.16602 251.42578 A 82.829083 54.394239 74.331824 0 0 418 154.33203 A 82.829083 54.394239 74.331824 0 0 352.75977 91.294922 z M 222.38086 139.40039 A 86.297012 56.451802 53.644858 0 0 195.49609 149.14258 A 86.297012 56.451802 53.644858 0 0 206.9082 254.0625 A 86.297012 56.451802 53.644858 0 0 303.02148 283.92773 A 86.297012 56.451802 53.644858 0 0 291.60938 179.00781 A 86.297012 56.451802 53.644858 0 0 222.38086 139.40039 z M 21.541016 219.81055 C 21.541016 219.81055 37.247701 263.5645 50.496094 279.19727 C 63.744483 294.83003 69.95945 290.87083 76.587891 284.76367 C 83.216339 278.65653 92.940734 265.1732 74.5 257.08008 C 48.572214 245.70108 21.541016 219.81055 21.541016 219.81055 z M 143.5918 257.80273 A 84.895517 57.383735 30.159417 0 0 95.876953 283.36914 A 84.895517 57.383735 30.159417 0 0 146.01172 375.11328 A 84.895517 57.383735 30.159417 0 0 245.63672 363.07812 A 84.895517 57.383735 30.159417 0 0 195.5 271.33398 A 84.895517 57.383735 30.159417 0 0 143.5918 257.80273 z M 510.35156 284.04297 C 507.6939 283.96691 505.08769 284.33287 502.62305 285.24219 C 494.85748 287.89645 489.41849 294.52669 483.92578 300.53711 C 476.17556 308.85944 467.85157 317.24365 456.88281 320.49805 C 443.23067 324.70572 427.63535 321.99443 413.53711 315.27148 C 401.13712 309.8716 388.31023 304.23803 375.44336 304.19336 C 362.61111 304.5286 351.40905 310.70455 341.16797 317.49023 C 327.11617 326.81119 313.11651 336.21556 299.1875 345.73438 C 289.53215 352.64459 280.33092 361.11311 275.50195 373.0625 C 272.43935 381.45426 274.54457 391.81283 278.79297 400.45117 C 285.48305 414.67059 292.57019 429.21212 294.7832 444.65625 C 297.25838 461.57935 293.80305 477.96902 287.86523 492.21875 C 284.25443 500.94655 280.3199 510.02785 281.03125 520.52148 C 281.96199 531.67151 288.70989 542.28131 297.03125 549.35742 C 325.41672 573.11527 362.34626 581.19257 392.77539 571.39648 C 407.0394 566.72983 419.80616 558.69924 432.13086 550.27539 C 444.15735 541.89179 456.00059 533.21913 467.72461 524.375 C 497.14959 501.96648 525.51633 477.52644 548.80469 447.53906 C 559.57147 433.47635 568.92376 417.39655 572.56836 398.45703 C 577.9766 369.91328 569.21623 336.7555 550.61328 311.98438 C 544.09454 303.34169 536.43303 295.502 527.69922 289.88086 C 522.298 286.51766 516.19841 284.21029 510.35156 284.04297 z M 0 386.75195 C -2.3684758e-15 386.75195 16.777625 430.07049 30.40625 445.34375 C 44.034871 460.61705 50.150941 456.49533 56.626953 450.21289 C 63.102977 443.93048 72.491192 430.19098 53.857422 422.59375 C 27.658228 411.91197 0 386.75195 0 386.75195 z M 158.30273 397.63867 A 85.204247 59.623456 2.8968416 0 0 78.863281 448.60938 A 85.204247 59.623456 2.8968416 0 0 154.17578 516.38867 A 85.204247 59.623456 2.8968416 0 0 248.13672 466.04102 A 85.204247 59.623456 2.8968416 0 0 172.82422 398.26172 A 85.204247 59.623456 2.8968416 0 0 158.30273 397.63867 z "
           transform="matrix(0.26458333,0,0,0.26458333,6.7938298,20.914074)"
           id="rect882" />
      </g>
    </g>
  </g>
</svg>
